<svg width="28" height="28" viewBox="0 0 28 28" fill="none" xmlns="http://www.w3.org/2000/svg">
<path d="M2.41498 5.36661C3.34832 1.32994 9.42665 1.32994 10.3483 5.36661C10.8967 7.73494 9.39165 9.74161 8.08498 10.9899C7.12832 11.8999 5.62332 11.8883 4.66665 10.9899C3.37165 9.74161 1.86665 7.73494 2.41498 5.36661Z" stroke="black" stroke-width="1.5"/>
<path d="M17.5817 19.3666C18.515 15.3299 24.6283 15.3299 25.5617 19.3666C26.11 21.7349 24.605 23.7416 23.2867 24.9899C22.33 25.8999 20.8133 25.8883 19.8567 24.9899C18.5383 23.7416 17.0333 21.7349 17.5817 19.3666Z" stroke="black" stroke-width="1.5"/>
<path d="M14 5.83325H17.1266C19.285 5.83325 20.2883 8.50492 18.6666 9.92825L9.34498 18.0833C7.72331 19.4949 8.72664 22.1666 10.8733 22.1666H14" stroke="black" stroke-width="1.5" stroke-linecap="round" stroke-linejoin="round"/>
<path d="M6.40059 6.41659H6.41407" stroke="black" stroke-width="2" stroke-linecap="round" stroke-linejoin="round"/>
<path d="M21.5673 20.4166H21.5808" stroke="black" stroke-width="2" stroke-linecap="round" stroke-linejoin="round"/>
</svg>
